<svg width="16" height="16" viewBox="0 0 16 16" fill="none" xmlns="http://www.w3.org/2000/svg">
<path d="M7.21838 10.9194C6.51982 11.2724 5.73401 11.4157 4.95581 11.3319C4.17761 11.2482 3.44028 10.941 2.83281 10.4474C2.22535 9.95387 1.77372 9.29504 1.53243 8.55046C1.29115 7.80589 1.27052 7.00739 1.47305 6.25135L5.08105 7.21802C4.72804 6.51945 4.58475 5.73365 4.66849 4.95544C4.75224 4.17724 5.05942 3.43991 5.55298 2.83245C6.04654 2.22498 6.70536 1.77335 7.44994 1.53207C8.19452 1.29078 8.99301 1.27016 9.74905 1.47268L8.78238 5.08068C9.48095 4.72767 10.2668 4.58439 11.045 4.66813C11.8232 4.75187 12.5605 5.05906 13.168 5.55261C13.7754 6.04617 14.2271 6.705 14.4683 7.44957C14.7096 8.19415 14.7302 8.99265 14.5277 9.74868L10.9197 8.78202C11.2727 9.48058 11.416 10.2664 11.3323 11.0446C11.2485 11.8228 10.9413 12.5601 10.4478 13.1676C9.95423 13.7751 9.2954 14.2267 8.55083 14.468C7.80625 14.7093 7.00776 14.7299 6.25172 14.5274L7.21838 10.9194Z" stroke="#6F7196" stroke-width="1.33333" stroke-linecap="round" stroke-linejoin="round"/>
<path d="M8 8V8.00667" stroke="#6F7196" stroke-width="1.33333" stroke-linecap="round" stroke-linejoin="round"/>
</svg>
