<svg width="16" height="16" viewBox="0 0 16 16" fill="none" xmlns="http://www.w3.org/2000/svg">
<path d="M3.99967 8H2.66634C2.31272 8 1.97358 7.85952 1.72353 7.60948C1.47348 7.35943 1.33301 7.02029 1.33301 6.66667V3.33333C1.33301 2.97971 1.47348 2.64057 1.72353 2.39052C1.97358 2.14048 2.31272 2 2.66634 2H13.333C13.6866 2 14.0258 2.14048 14.2758 2.39052C14.5259 2.64057 14.6663 2.97971 14.6663 3.33333V6.66667C14.6663 7.02029 14.5259 7.35943 14.2758 7.60948C14.0258 7.85952 13.6866 8 13.333 8H11.9997" stroke="#6F7196" stroke-width="1.33333" stroke-linecap="round" stroke-linejoin="round"/>
<path d="M4 5.33337H12" stroke="#6F7196" stroke-width="1.33333" stroke-linecap="round" stroke-linejoin="round"/>
<path d="M12.1997 11.8C12.4817 12.0949 12.6458 12.4831 12.6608 12.8909C12.6757 13.2987 12.5405 13.6979 12.2808 14.0127C12.0211 14.3274 11.6549 14.536 11.2516 14.5988C10.8484 14.6616 10.4361 14.5742 10.093 14.3533C9.8699 14.207 9.68469 14.0099 9.55257 13.7781C9.42046 13.5463 9.34521 13.2865 9.33301 13.02V8" stroke="#6F7196" stroke-width="1.33333" stroke-linecap="round" stroke-linejoin="round"/>
<path d="M4.39987 10.4C4.24234 10.5545 4.12559 10.7456 4.0601 10.9563C3.99461 11.1669 3.98242 11.3906 4.02462 11.6071C4.06682 11.8236 4.16209 12.0263 4.3019 12.197C4.4417 12.3677 4.62167 12.501 4.82567 12.585C5.02967 12.669 5.25132 12.701 5.47076 12.6783C5.6902 12.6556 5.90057 12.5787 6.08302 12.4547C6.26546 12.3306 6.41427 12.1633 6.51611 11.9675C6.61795 11.7718 6.66963 11.5539 6.66654 11.3333V8" stroke="#6F7196" stroke-width="1.33333" stroke-linecap="round" stroke-linejoin="round"/>
</svg>
