<svg width="31" height="31" viewBox="0 0 31 31" fill="none" xmlns="http://www.w3.org/2000/svg">
<path fill-rule="evenodd" clip-rule="evenodd" d="M14.4553 30.625V9.25729L10.0179 7.36035L2.59375 10.5339V30.625H14.4553Z" fill="#909CD1"/>
<path fill-rule="evenodd" clip-rule="evenodd" d="M10.0176 30.625H14.455V9.25729L10.0176 7.36035V30.625Z" fill="#7986BF"/>
<path fill-rule="evenodd" clip-rule="evenodd" d="M27.9621 30.625H13.7031V3.04769L20.8326 0L27.9621 3.04769V30.625Z" fill="#AEAED6"/>
<path fill-rule="evenodd" clip-rule="evenodd" d="M20.8326 30.625H13.7031V3.04769L20.8326 0V30.625Z" fill="#D1D1F0"/>
<path fill-rule="evenodd" clip-rule="evenodd" d="M25.8054 4.79933C25.8054 4.69987 25.8449 4.60449 25.9152 4.53416C25.9855 4.46383 26.0809 4.42433 26.1804 4.42433C26.2798 4.42433 26.3752 4.46383 26.4455 4.53416C26.5159 4.60449 26.5554 4.69987 26.5554 4.79933V27.1252C26.5554 27.2247 26.5159 27.32 26.4455 27.3904C26.3752 27.4607 26.2798 27.5002 26.1804 27.5002C26.0809 27.5002 25.9855 27.4607 25.9152 27.3904C25.8449 27.32 25.8054 27.2247 25.8054 27.1252V4.79933ZM22.2406 3.27551C22.2406 3.17606 22.2801 3.08067 22.3504 3.01035C22.4208 2.94002 22.5162 2.90051 22.6156 2.90051C22.7151 2.90051 22.8104 2.94002 22.8808 3.01035C22.9511 3.08067 22.9906 3.17606 22.9906 3.27551V27.1252C22.9906 27.2247 22.9511 27.32 22.8808 27.3904C22.8104 27.4607 22.7151 27.5002 22.6156 27.5002C22.5162 27.5002 22.4208 27.4607 22.3504 27.3904C22.2801 27.32 22.2406 27.2247 22.2406 27.1252V3.27551ZM24.023 4.03739C24.023 3.93793 24.0625 3.84255 24.1328 3.77222C24.2031 3.7019 24.2985 3.66239 24.398 3.66239C24.4974 3.66239 24.5928 3.7019 24.6631 3.77222C24.7335 3.84255 24.773 3.93793 24.773 4.03739V27.1252C24.773 27.2247 24.7335 27.32 24.6631 27.3904C24.5928 27.4607 24.4974 27.5002 24.398 27.5002C24.2985 27.5002 24.2031 27.4607 24.1328 27.3904C24.0625 27.32 24.023 27.2247 24.023 27.1252V4.03739ZM7.70048 30.625H4.91211V23.8132L7.70048 23.5478V30.625Z" fill="#F3F3FF"/>
<path fill-rule="evenodd" clip-rule="evenodd" d="M17.4195 19.5107V16.7698L18.9381 16.5353V19.3651L17.4195 19.5107ZM17.4195 15.1918V12.4531L18.9381 12.0784V14.906L17.4195 15.1918ZM17.4195 10.8751V8.13427L18.9381 7.61933V10.4492L17.4195 10.8751ZM17.4195 6.55845L17.4191 3.99214L18.938 3.34045V5.99239L17.4195 6.55845H17.4195ZM14.707 19.7688V17.1909L16.0546 16.9831V19.6397L14.707 19.7688ZM14.707 15.7044V13.1204L16.0551 12.7881V15.4511L14.707 15.7044ZM14.707 11.6381V9.05395L16.0551 8.59739V11.2606L14.707 11.6382V11.6381ZM14.707 7.56677V5.15427L16.0555 4.57627L16.0551 7.06683L14.707 7.56677Z" fill="#AEAED6"/>
<path fill-rule="evenodd" clip-rule="evenodd" d="M17.8648 19.4679V16.7009L19.3834 16.4664V19.3224L17.8648 19.4679ZM17.8648 15.1079V12.3431L19.3834 11.9684V14.822L17.8648 15.1079V15.1079ZM17.8648 10.7501V7.98311L19.3834 7.46817V10.3242L17.8648 10.7501ZM17.8648 6.39223L17.8645 3.8008L19.3834 3.14911V5.82617L17.8648 6.39223ZM15.1523 19.726V17.1222L16.5 16.9144V19.597L15.1523 19.726ZM15.1523 15.6206V13.0105L16.5004 12.6782V15.3674L15.1523 15.6206ZM15.1523 11.5131V8.90298L16.5004 8.44642V11.1355L15.1523 11.5131ZM15.1523 7.40142V4.96298L16.5008 4.38498L16.5004 6.90148L15.1523 7.40136V7.40142Z" fill="#F3F3FF"/>
<path fill-rule="evenodd" clip-rule="evenodd" d="M15.3115 30.625V22.6792L15.8741 22.6257V30.625H15.3115Z" fill="#AEAED6"/>
<path fill-rule="evenodd" clip-rule="evenodd" d="M18.6624 30.625H15.874V22.6257L18.6624 22.3603V30.625Z" fill="#F3F3FF"/>
<path fill-rule="evenodd" clip-rule="evenodd" d="M15.0242 23.082C14.975 23.0873 14.9252 23.0828 14.8777 23.0687C14.8303 23.0546 14.7861 23.0313 14.7478 23C14.7094 22.9687 14.6777 22.9301 14.6544 22.8864C14.6311 22.8427 14.6167 22.7948 14.612 22.7456C14.6074 22.6963 14.6125 22.6466 14.6273 22.5993C14.642 22.552 14.6659 22.5082 14.6977 22.4702C14.7296 22.4323 14.7686 22.4011 14.8126 22.3784C14.8565 22.3557 14.9046 22.3419 14.9539 22.3379L19.1647 21.9371C19.2139 21.9318 19.2637 21.9363 19.3111 21.9504C19.3586 21.9645 19.4028 21.9879 19.4411 22.0192C19.4795 22.0505 19.5112 22.0891 19.5345 22.1327C19.5578 22.1764 19.5722 22.2243 19.5769 22.2736C19.5815 22.3228 19.5763 22.3726 19.5616 22.4198C19.5469 22.4671 19.5229 22.5109 19.4911 22.5489C19.4593 22.5868 19.4203 22.618 19.3763 22.6407C19.3323 22.6635 19.2843 22.6772 19.2349 22.6812L15.0242 23.082Z" fill="#AEAED6"/>
<path fill-rule="evenodd" clip-rule="evenodd" d="M5.99115 20.2534V18.0203L7.25434 17.7596V20.0794L5.99115 20.2534ZM5.99115 16.7338V14.4999L7.25434 14.1007V16.4226L5.99115 16.7338ZM5.99077 13.2148V11.1238L7.25434 10.5883V12.7651L5.99077 13.2149V13.2148ZM3.77246 20.5589V18.4756L4.86927 18.2503V20.4087L3.77246 20.5589ZM3.77246 17.2813V15.1986L4.86927 14.8538V17.0116L3.77246 17.2813V17.2813ZM3.77246 14.0008V12.0575L4.86996 11.5953L4.86965 13.6128L3.77246 14.0008Z" fill="#7986BF"/>
<path fill-rule="evenodd" clip-rule="evenodd" d="M6.39838 20.1972V17.9362L7.66156 17.6755V20.0232L6.39838 20.1972ZM6.39838 16.6334V14.371L7.66156 13.9718V16.3222L6.39838 16.6334ZM6.398 13.0696V10.9508L7.66156 10.4154V12.6198L6.398 13.0696ZM4.17969 20.5026V18.3913L5.2765 18.1661V20.3525L4.17969 20.5027V20.5026ZM4.17969 17.1808V15.0696L5.2765 14.7248V16.9112L4.17969 17.1809V17.1808ZM4.17969 13.8564V11.8845L5.27719 11.4222L5.27688 13.4684L4.17975 13.8563L4.17969 13.8564Z" fill="#F3F3FF"/>
<path fill-rule="evenodd" clip-rule="evenodd" d="M4.91119 30.625H4.44531V23.8575L4.91119 23.8132V30.625Z" fill="#7986BF"/>
<path d="M0 29.0618H30.5557V30.625H0V29.0618Z" fill="#E6B17C"/>
<path d="M0 29.8434H30.5557V30.625H0V29.8434Z" fill="#D19458"/>
<path fill-rule="evenodd" clip-rule="evenodd" d="M4.40895 24.2364C4.35973 24.2417 4.30995 24.2372 4.2625 24.2231C4.21505 24.209 4.17087 24.1856 4.13252 24.1543C4.09417 24.123 4.06243 24.0844 4.03912 24.0408C4.01582 23.9971 4.00142 23.9492 3.99677 23.8999C3.99212 23.8507 3.9973 23.8009 4.01202 23.7537C4.02674 23.7064 4.0507 23.6626 4.08251 23.6246C4.11432 23.5867 4.15335 23.5555 4.19733 23.5327C4.24131 23.51 4.28936 23.4963 4.3387 23.4923L8.20195 23.1246C8.25116 23.1193 8.30094 23.1238 8.3484 23.1379C8.39585 23.152 8.44003 23.1754 8.47838 23.2067C8.51673 23.238 8.54847 23.2766 8.57178 23.3202C8.59508 23.3639 8.60948 23.4118 8.61413 23.4611C8.61878 23.5103 8.6136 23.5601 8.59888 23.6073C8.58416 23.6546 8.5602 23.6984 8.52839 23.7364C8.49658 23.7743 8.45755 23.8055 8.41357 23.8282C8.36959 23.851 8.32154 23.8647 8.2722 23.8687L4.40895 24.2364Z" fill="#3D4A75"/>
</svg>
