<svg width="24" height="24" viewBox="0 0 24 24" fill="none" xmlns="http://www.w3.org/2000/svg">
<path d="M4.00048 14C3.81125 14.0006 3.62571 13.9476 3.46543 13.847C3.30516 13.7464 3.17671 13.6023 3.09503 13.4316C3.01335 13.2609 2.98177 13.0706 3.00398 12.8826C3.02619 12.6947 3.10126 12.5169 3.22048 12.37L13.1205 2.16998C13.1947 2.08426 13.2959 2.02634 13.4075 2.00571C13.519 1.98509 13.6342 2.00299 13.7342 2.05648C13.8342 2.10998 13.9131 2.19588 13.9578 2.30009C14.0026 2.4043 14.0106 2.52063 13.9805 2.62998L12.0605 8.64998C12.0039 8.8015 11.9849 8.9645 12.0051 9.12499C12.0253 9.28547 12.0841 9.43866 12.1766 9.57141C12.269 9.70415 12.3923 9.81249 12.5358 9.88714C12.6793 9.96178 12.8387 10.0005 13.0005 9.99998H20.0005C20.1897 9.99933 20.3752 10.0524 20.5355 10.153C20.6958 10.2536 20.8242 10.3976 20.9059 10.5683C20.9876 10.739 21.0192 10.9294 20.997 11.1173C20.9748 11.3052 20.8997 11.483 20.7805 11.63L10.8805 21.83C10.8062 21.9157 10.705 21.9736 10.5935 21.9942C10.482 22.0149 10.3668 21.997 10.2668 21.9435C10.1667 21.89 10.0879 21.8041 10.0431 21.6999C9.9984 21.5957 9.9904 21.4793 10.0205 21.37L11.9405 15.35C11.9971 15.1985 12.0161 15.0355 11.9959 14.875C11.9757 14.7145 11.9168 14.5613 11.8244 14.4286C11.732 14.2958 11.6087 14.1875 11.4652 14.1128C11.3217 14.0382 11.1622 13.9995 11.0005 14H4.00048Z" stroke="#174C90" stroke-width="1.33333" stroke-linecap="round" stroke-linejoin="round"/>
</svg>
