<svg width="32" height="32" viewBox="0 0 32 32" fill="none" xmlns="http://www.w3.org/2000/svg">
<path fill-rule="evenodd" clip-rule="evenodd" d="M31.0118 6.65868V25.3413C31.0118 25.5295 30.937 25.7101 30.8039 25.8432C30.6708 25.9763 30.4903 26.0511 30.302 26.0511H1.66295C1.56973 26.0511 1.47742 26.0328 1.39129 25.9971C1.30516 25.9615 1.22691 25.9092 1.16099 25.8432C1.09507 25.7773 1.04279 25.6991 1.00712 25.6129C0.971458 25.5268 0.953109 25.4345 0.953125 25.3413V6.65868C0.953125 6.47042 1.02791 6.28987 1.16103 6.15675C1.29415 6.02364 1.47469 5.94885 1.66295 5.94885H30.302C30.4903 5.94885 30.6708 6.02364 30.8039 6.15675C30.937 6.28987 31.0118 6.47042 31.0118 6.65868ZM3.19175 7.25465C2.70204 7.25465 2.30445 7.65224 2.30445 8.14195C2.30445 8.63165 2.70204 9.02924 3.19175 9.02924C3.68145 9.02924 4.07904 8.63165 4.07904 8.14195C4.07904 7.65224 3.68145 7.25465 3.19175 7.25465ZM25.0988 19.141C24.0619 19.141 23.2201 19.9828 23.2201 21.0197C23.2201 22.0566 24.0619 22.8983 25.0988 22.8983C26.1357 22.8983 26.9775 22.0566 26.9775 21.0197C26.9775 19.9828 26.1357 19.141 25.0988 19.141ZM28.7732 7.25465C28.2835 7.25465 27.8859 7.65224 27.8859 8.14195C27.8859 8.63165 28.2835 9.02924 28.7732 9.02924C29.2629 9.02924 29.6605 8.63165 29.6605 8.14195C29.6605 7.65224 29.2629 7.25465 28.7732 7.25465ZM14.3591 24.7463L17.9555 21.436L16.4865 20.372L17.6947 17.2931L14.0094 20.4768L15.3985 21.5863C15.3985 21.5863 14.5358 24.1171 14.3591 24.7463ZM6.86611 19.141C5.82927 19.141 4.98744 19.9828 4.98744 21.0197C4.98744 22.0566 5.82927 22.8983 6.86611 22.8983C7.90301 22.8983 8.74478 22.0566 8.74478 21.0197C8.74478 19.9828 7.90301 19.141 6.86611 19.141ZM8.1813 15.88C10.3508 15.88 21.6142 15.88 23.7837 15.8789C23.8312 15.879 23.8783 15.8694 23.9221 15.8508C23.9659 15.8322 24.0055 15.8049 24.0385 15.7707C24.0715 15.7364 24.0973 15.6959 24.1142 15.6514C24.1312 15.607 24.1391 15.5596 24.1373 15.512C23.9446 11.1773 20.3644 7.71699 15.9825 7.71699C11.6005 7.71699 8.02037 11.1773 7.82661 15.512C7.82488 15.5597 7.83277 15.6072 7.84981 15.6518C7.86685 15.6963 7.8927 15.737 7.92581 15.7713C7.95891 15.8057 7.9986 15.833 8.0425 15.8517C8.08639 15.8703 8.1336 15.88 8.1813 15.88Z" fill="#A4D4FF"/>
<path fill-rule="evenodd" clip-rule="evenodd" d="M31.4501 6.65868V25.3413C31.45 25.6458 31.329 25.9378 31.1137 26.1531C30.8984 26.3684 30.6064 26.4894 30.3019 26.4895H1.66283C1.35832 26.4895 1.06628 26.3685 0.850961 26.1532C0.635639 25.9378 0.514665 25.6458 0.514648 25.3413V6.65868C0.514698 6.35418 0.635683 6.06216 0.850998 5.84685C1.06631 5.63153 1.35833 5.51055 1.66283 5.5105H30.3019C30.6064 5.51055 30.8984 5.63153 31.1137 5.84685C31.329 6.06216 31.45 6.35418 31.4501 6.65868ZM30.5734 6.65868C30.5734 6.62303 30.5663 6.58772 30.5527 6.55478C30.5391 6.52184 30.5191 6.49191 30.4939 6.4667C30.4687 6.44149 30.4387 6.4215 30.4058 6.40786C30.3728 6.39422 30.3375 6.3872 30.3019 6.38721H1.66283C1.62717 6.38719 1.59186 6.39419 1.55891 6.40782C1.52597 6.42146 1.49603 6.44145 1.47082 6.46667C1.4456 6.49188 1.42561 6.52182 1.41197 6.55476C1.39834 6.58771 1.39134 6.62302 1.39136 6.65868V25.3413C1.39135 25.3769 1.39837 25.4122 1.41201 25.4452C1.42565 25.4781 1.44564 25.5081 1.47085 25.5333C1.49606 25.5585 1.52599 25.5785 1.55893 25.5921C1.59187 25.6058 1.62718 25.6128 1.66283 25.6128H30.3019C30.3375 25.6128 30.3728 25.6058 30.4058 25.5921C30.4387 25.5785 30.4687 25.5585 30.4939 25.5333C30.5191 25.5081 30.5391 25.4781 30.5527 25.4452C30.5663 25.4122 30.5734 25.3769 30.5734 25.3413V6.65868ZM13.9369 24.6276C14.0779 24.126 14.6514 22.4244 14.8843 21.7368L13.7357 20.8193C13.6854 20.7791 13.6446 20.7283 13.6161 20.6706C13.5877 20.6129 13.5723 20.5496 13.5711 20.4852C13.5698 20.4209 13.5828 20.357 13.609 20.2982C13.6352 20.2395 13.6741 20.1872 13.7228 20.1451L17.408 16.9614C17.4821 16.8973 17.5756 16.86 17.6734 16.8553C17.7713 16.8506 17.8679 16.8788 17.9478 16.9354C18.0278 16.992 18.0865 17.0738 18.1145 17.1676C18.1426 17.2615 18.1384 17.3621 18.1026 17.4533L17.0184 20.2162L18.2125 21.0809C18.2651 21.119 18.3086 21.1683 18.3398 21.2253C18.371 21.2823 18.3892 21.3454 18.393 21.4103C18.3968 21.4751 18.3861 21.54 18.3618 21.6002C18.3374 21.6604 18.3 21.7145 18.2522 21.7585L14.6558 25.0688C14.5856 25.1333 14.4962 25.1733 14.4013 25.1825C14.3063 25.1917 14.211 25.1697 14.1297 25.1198C14.0484 25.0699 13.9856 24.9949 13.9508 24.906C13.916 24.8172 13.9111 24.7195 13.9369 24.6276ZM15.2838 23.2992L17.264 21.4765L16.2293 20.727C16.1506 20.67 16.093 20.5885 16.0657 20.4953C16.0384 20.402 16.0428 20.3024 16.0783 20.2119L16.6383 18.7849L14.6952 20.4636L15.6719 21.2438C15.7424 21.3001 15.7938 21.3768 15.8191 21.4634C15.8444 21.55 15.8424 21.6423 15.8133 21.7277C15.8133 21.7277 15.549 22.5029 15.2838 23.2992ZM28.7731 6.8163C29.5047 6.8163 30.0987 7.41033 30.0987 8.14195C30.0987 8.87357 29.5047 9.4676 28.7731 9.4676C28.0414 9.4676 27.4474 8.87357 27.4474 8.14195C27.4474 7.41033 28.0414 6.8163 28.7731 6.8163ZM28.7731 7.69301C28.654 7.69308 28.5399 7.7404 28.4557 7.82458C28.3715 7.90875 28.3242 8.0229 28.3242 8.14195C28.3242 8.261 28.3715 8.37516 28.4557 8.45934C28.5399 8.54352 28.654 8.59084 28.7731 8.59089C28.8921 8.59082 29.0063 8.5435 29.0905 8.45933C29.1746 8.37515 29.222 8.261 29.222 8.14195C29.222 8.0229 29.1746 7.90875 29.0905 7.82458C29.0063 7.7404 28.8921 7.69308 28.7731 7.69301ZM6.86599 18.4518C8.28326 18.4518 9.43382 19.6025 9.43382 21.0197C9.43382 22.4369 8.28326 23.5875 6.86599 23.5875C5.44879 23.5875 4.29816 22.4369 4.29816 21.0197C4.29816 19.6025 5.44879 18.4518 6.86599 18.4518ZM6.86599 19.3285C5.93267 19.3285 5.17488 20.0863 5.17488 21.0197C5.17488 21.953 5.93267 22.7108 6.86599 22.7108C7.79938 22.7108 8.55711 21.953 8.55711 21.0197C8.55711 20.0863 7.79938 19.3285 6.86599 19.3285ZM3.19163 6.8163C3.92324 6.8163 4.51728 7.41033 4.51728 8.14195C4.51728 8.87357 3.92324 9.4676 3.19163 9.4676C2.46001 9.4676 1.86598 8.87357 1.86598 8.14195C1.86598 7.41033 2.46001 6.8163 3.19163 6.8163ZM3.19163 7.69301C3.07258 7.69308 2.95843 7.7404 2.87425 7.82458C2.79007 7.90875 2.74275 8.0229 2.74269 8.14195C2.74274 8.261 2.79005 8.37516 2.87423 8.45934C2.95842 8.54352 3.07258 8.59084 3.19163 8.59089C3.31067 8.59082 3.42482 8.5435 3.509 8.45933C3.59318 8.37515 3.6405 8.261 3.64057 8.14195C3.6405 8.0229 3.59318 7.90875 3.509 7.82458C3.42482 7.7404 3.31067 7.69308 3.19163 7.69301ZM23.4313 11.5793C24.1033 12.7399 24.5119 14.0717 24.5751 15.4926L24.5752 15.4959C24.5791 15.6023 24.5616 15.7085 24.5236 15.8079C24.4856 15.9074 24.4279 15.9982 24.354 16.0748C24.2802 16.1515 24.1916 16.2125 24.0936 16.2542C23.9956 16.2958 23.8902 16.3173 23.7837 16.3173C21.6142 16.3184 10.3507 16.3184 8.18118 16.3184C8.07456 16.3183 7.96903 16.2968 7.8709 16.2551C7.77278 16.2134 7.68407 16.1523 7.61007 16.0755C7.53607 15.9988 7.47831 15.9079 7.44023 15.8083C7.40216 15.7087 7.38454 15.6024 7.38845 15.4959L7.38857 15.4924C7.59272 10.9249 11.365 7.27864 15.9824 7.27864C19.1629 7.27864 21.9424 9.00871 23.4307 11.5783L23.4313 11.5793ZM15.544 8.16763C14.4859 8.22621 13.4513 8.50322 12.5055 8.98121L13.0099 9.85492C13.1309 10.0645 13.059 10.3327 12.8495 10.4537C12.64 10.5747 12.3717 10.5028 12.2507 10.2933L11.7468 9.42038C10.8615 10.0024 10.1046 10.7591 9.52224 11.6441L10.3956 12.1483C10.4963 12.2065 10.5697 12.3022 10.5998 12.4145C10.6299 12.5268 10.6142 12.6464 10.5561 12.7471C10.4979 12.8478 10.4022 12.9212 10.2899 12.9513C10.1776 12.9814 10.058 12.9657 9.95728 12.9076L9.08282 12.4027C8.60442 13.3486 8.32729 14.3833 8.26892 15.4416C10.6064 15.4416 21.3549 15.4416 23.6947 15.4406C23.636 14.3828 23.359 13.3486 22.8811 12.4031L22.0074 12.9076C21.7979 13.0286 21.5296 12.9567 21.4086 12.7471C21.2876 12.5376 21.3595 12.2693 21.569 12.1483L22.4418 11.6444C21.8597 10.7594 21.1029 10.0026 20.2179 9.42057L19.714 10.2933C19.6558 10.3939 19.5601 10.4674 19.4478 10.4974C19.3355 10.5275 19.2159 10.5118 19.1152 10.4537C19.0145 10.3955 18.9411 10.2998 18.911 10.1875C18.881 10.0752 18.8967 9.95562 18.9547 9.85492L19.4592 8.98128C18.5134 8.50323 17.4788 8.2262 16.4207 8.16763V9.17591C16.4207 9.41788 16.2243 9.61426 15.9824 9.61426C15.7404 9.61426 15.544 9.41788 15.544 9.17591V8.16763ZM15.1188 14.2418L12.7777 12.5161C12.6842 12.447 12.6219 12.3437 12.6045 12.2288C12.5871 12.1138 12.6161 11.9967 12.685 11.9031C12.7541 11.8096 12.8574 11.7473 12.9723 11.7299C13.0873 11.7125 13.2044 11.7414 13.298 11.8104L15.6389 13.5361C15.7474 13.4894 15.8643 13.4653 15.9824 13.4655C16.4616 13.4655 16.8507 13.8545 16.8507 14.3339C16.8507 14.8131 16.4616 15.2022 15.9824 15.2022C15.503 15.2022 15.114 14.8131 15.114 14.3339C15.114 14.3028 15.1156 14.272 15.1188 14.2418ZM25.0987 18.4518C26.5159 18.4518 27.6665 19.6025 27.6665 21.0197C27.6665 22.4369 26.5159 23.5875 25.0987 23.5875C23.6815 23.5875 22.5308 22.4369 22.5308 21.0197C22.5308 19.6025 23.6815 18.4518 25.0987 18.4518ZM25.0987 19.3285C24.1653 19.3285 23.4075 20.0863 23.4075 21.0197C23.4075 21.953 24.1653 22.7108 25.0987 22.7108C26.0321 22.7108 26.7898 21.953 26.7898 21.0197C26.7898 20.0863 26.0321 19.3285 25.0987 19.3285Z" fill="#1F4571"/>
</svg>
