<svg width="32" height="32" viewBox="0 0 32 32" fill="none" xmlns="http://www.w3.org/2000/svg">
<g clip-path="url(#clip0_2387_216)">
<path d="M20.8319 29.8667H1.59987C1.31697 29.8667 1.04566 29.7543 0.845623 29.5543C0.645584 29.3542 0.533203 29.0829 0.533203 28.8V16.1259C0.53321 15.9278 0.588399 15.7335 0.692585 15.565C0.796771 15.3965 0.945836 15.2603 1.12307 15.1718L8.8836 11.2912C9.01524 11.2254 9.16152 11.1943 9.30855 11.2009C9.45558 11.2076 9.59848 11.2516 9.72368 11.329C9.84887 11.4064 9.95222 11.5145 10.0239 11.643C10.0956 11.7716 10.1332 11.9163 10.1332 12.0635V15.4667L18.4836 11.2912C18.6152 11.2254 18.7615 11.1943 18.9086 11.2009C19.0556 11.2076 19.1985 11.2516 19.3237 11.329C19.4489 11.4064 19.5522 11.5145 19.6239 11.643C19.6956 11.7716 19.7332 11.9163 19.7332 12.0635V15.4667H27.7332C28.0161 15.4667 28.2874 15.5791 28.4875 15.7791C28.6875 15.9791 28.7999 16.2505 28.7999 16.5334V19.8667L20.8319 29.8667Z" fill="#9FC9D3"/>
<path d="M25.067 31.4667C28.6016 31.4667 31.467 28.6013 31.467 25.0667C31.467 21.5321 28.6016 18.6667 25.067 18.6667C21.5324 18.6667 18.667 21.5321 18.667 25.0667C18.667 28.6013 21.5324 31.4667 25.067 31.4667Z" fill="#3B97D3"/>
<path d="M27.0214 20.8H24.6928C24.5944 20.8 24.4984 20.8308 24.4184 20.8882C24.3384 20.9456 24.2784 21.0267 24.247 21.12L22.7195 24.9813C22.696 25.0518 22.6895 25.1268 22.7006 25.2002C22.7116 25.2736 22.74 25.3434 22.7832 25.4038C22.8265 25.4641 22.8834 25.5134 22.9494 25.5475C23.0153 25.5816 23.0884 25.5996 23.1627 25.6H24.6187L23.4822 28.8688C23.4544 28.9462 23.4551 29.031 23.4842 29.108C23.5134 29.1849 23.569 29.2489 23.6411 29.2885C23.7132 29.3281 23.7971 29.3407 23.8777 29.324C23.9582 29.3072 24.0302 29.2623 24.0806 29.1973L27.6331 24.7584C27.6872 24.6888 27.7207 24.6054 27.7297 24.5176C27.7387 24.4299 27.7228 24.3414 27.6838 24.2623C27.6449 24.1832 27.5845 24.1167 27.5095 24.0703C27.4345 24.0239 27.3479 23.9995 27.2598 24H25.8923L27.4203 21.5189C27.4646 21.4477 27.4891 21.366 27.4912 21.2822C27.4933 21.1983 27.4729 21.1155 27.4322 21.0421C27.3915 20.9688 27.332 20.9077 27.2598 20.8651C27.1875 20.8226 27.1052 20.8001 27.0214 20.8Z" fill="#F0C419"/>
<path d="M26.8585 3.19999H22.7412L22.8959 1.02933C22.9067 0.894942 22.9674 0.76948 23.0661 0.677668C23.1649 0.585857 23.2944 0.534359 23.4292 0.533325H26.1705C26.3054 0.534359 26.4349 0.585857 26.5336 0.677668C26.6323 0.76948 26.6931 0.894942 26.7039 1.02933L26.8585 3.19999Z" fill="#3F5C6C"/>
<path d="M27.7329 15.4667H21.8662L22.7409 3.20001H26.8582L27.7329 15.4667Z" fill="#547580"/>
<path d="M7.46673 19.2H4.26673C3.97218 19.2 3.7334 19.4388 3.7334 19.7333V22.9333C3.7334 23.2279 3.97218 23.4667 4.26673 23.4667H7.46673C7.76128 23.4667 8.00007 23.2279 8.00007 22.9333V19.7333C8.00007 19.4388 7.76128 19.2 7.46673 19.2Z" fill="#3B97D3"/>
<path d="M15.9999 19.2H12.7999C12.5054 19.2 12.2666 19.4388 12.2666 19.7333V22.9333C12.2666 23.2279 12.5054 23.4667 12.7999 23.4667H15.9999C16.2945 23.4667 16.5333 23.2279 16.5333 22.9333V19.7333C16.5333 19.4388 16.2945 19.2 15.9999 19.2Z" fill="#3B97D3"/>
</g>
<defs>
<clipPath id="clip0_2387_216">
<rect width="32" height="32" fill="white"/>
</clipPath>
</defs>
</svg>
