<svg width="32" height="32" viewBox="0 0 32 32" fill="none" xmlns="http://www.w3.org/2000/svg">
<path d="M30.0063 17.6832H25.4427C25.381 17.6832 25.3199 17.6953 25.2628 17.7189C25.2058 17.7426 25.154 17.7772 25.1103 17.8208C25.0667 17.8645 25.0321 17.9163 25.0084 17.9733C24.9848 18.0304 24.9727 18.0915 24.9727 18.1532V31.497C24.9727 31.5587 24.9848 31.6198 25.0084 31.6769C25.0321 31.7339 25.0667 31.7857 25.1103 31.8294C25.154 31.873 25.2058 31.9076 25.2628 31.9313C25.3199 31.9549 25.381 31.967 25.4427 31.967H30.0063C30.1309 31.967 30.2505 31.9175 30.3387 31.8294C30.4268 31.7412 30.4763 31.6216 30.4763 31.497V18.1532C30.4763 18.0286 30.4268 17.909 30.3386 17.8209C30.2505 17.7327 30.1309 17.6832 30.0063 17.6832Z" fill="#A0A0A0"/>
<path d="M27.3228 17.6832H25.4427C25.381 17.6832 25.3199 17.6953 25.2628 17.7189C25.2058 17.7426 25.154 17.7772 25.1103 17.8208C25.0667 17.8645 25.0321 17.9163 25.0084 17.9733C24.9848 18.0304 24.9727 18.0915 24.9727 18.1532V31.497C24.9727 31.5587 24.9848 31.6198 25.0084 31.6769C25.0321 31.7339 25.0667 31.7857 25.1103 31.8294C25.154 31.873 25.2058 31.9076 25.2628 31.9313C25.3199 31.9549 25.381 31.967 25.4427 31.967H27.3228V17.6832Z" fill="#878787"/>
<path d="M31.5304 15.1591H25.4427C25.3181 15.1591 25.1985 15.2086 25.1103 15.2968C25.0222 15.385 24.9727 15.5045 24.9727 15.6292V18.1532C24.9727 18.2779 25.0222 18.3975 25.1103 18.4856C25.1985 18.5738 25.3181 18.6233 25.4427 18.6233H31.5304C31.6551 18.6233 31.7746 18.5738 31.8628 18.4856C31.9509 18.3975 32.0005 18.2779 32.0005 18.1532V15.6292C32.0005 15.5045 31.9509 15.385 31.8628 15.2968C31.7746 15.2086 31.6551 15.1591 31.5304 15.1591Z" fill="#565656"/>
<path d="M27.3228 15.1591H25.4427C25.381 15.1591 25.3199 15.1713 25.2628 15.1949C25.2058 15.2185 25.154 15.2531 25.1103 15.2968C25.0667 15.3404 25.0321 15.3923 25.0084 15.4493C24.9848 15.5063 24.9727 15.5675 24.9727 15.6292V18.1532C24.9727 18.215 24.9848 18.2761 25.0084 18.3331C25.0321 18.3902 25.0667 18.442 25.1103 18.4856C25.154 18.5293 25.2058 18.5639 25.2628 18.5875C25.3199 18.6111 25.381 18.6233 25.4427 18.6233H27.3228V15.1591Z" fill="#494949"/>
<path d="M6.55816 17.6832H1.99448C1.86981 17.6832 1.75025 17.7327 1.66209 17.8208C1.57394 17.909 1.52441 18.0286 1.52441 18.1532V31.497C1.52441 31.6216 1.57394 31.7412 1.66209 31.8294C1.75025 31.9175 1.86981 31.967 1.99448 31.967H6.55804C6.68271 31.967 6.80227 31.9175 6.89042 31.8294C6.97858 31.7412 7.0281 31.6216 7.0281 31.497V18.1532C7.02812 18.0915 7.01597 18.0304 6.99237 17.9734C6.96876 17.9163 6.93414 17.8645 6.8905 17.8209C6.84686 17.7772 6.79505 17.7426 6.73803 17.719C6.68101 17.6953 6.61989 17.6832 6.55816 17.6832Z" fill="#A0A0A0"/>
<path d="M6.55792 17.6832H4.67773V31.967H6.55786C6.68253 31.967 6.80209 31.9175 6.89024 31.8293C6.9784 31.7411 7.02792 31.6216 7.02792 31.4969V18.1532C7.02792 18.0285 6.9784 17.909 6.89026 17.8208C6.80212 17.7327 6.68257 17.6832 6.55792 17.6832Z" fill="#878787"/>
<path d="M6.55775 15.1591H0.470062C0.345394 15.1591 0.225832 15.2086 0.137678 15.2968C0.0495243 15.385 0 15.5045 0 15.6292L0 18.1532C0 18.2779 0.0495243 18.3975 0.137678 18.4856C0.225832 18.5738 0.345394 18.6233 0.470062 18.6233H6.55775C6.68242 18.6233 6.80198 18.5738 6.89013 18.4856C6.97829 18.3975 7.02781 18.2779 7.02781 18.1532V15.6292C7.02778 15.5045 6.97824 15.385 6.8901 15.2968C6.80195 15.2087 6.68241 15.1592 6.55775 15.1591Z" fill="#565656"/>
<path d="M6.55792 15.1591H4.67773V18.6232H6.55786C6.68253 18.6232 6.80209 18.5737 6.89024 18.4856C6.9784 18.3974 7.02792 18.2778 7.02792 18.1532V15.6291C7.02792 15.5045 6.9784 15.3849 6.89026 15.2968C6.80212 15.2086 6.68257 15.1591 6.55792 15.1591Z" fill="#494949"/>
<path d="M25.4425 8.27014H20.1109C20.0381 8.27013 19.9663 8.28703 19.9012 8.31949C19.8361 8.35195 19.7794 8.39909 19.7356 8.4572C18.8388 9.64689 17.4716 10.3292 15.9845 10.3292C14.4973 10.3292 13.1301 9.64689 12.2333 8.4572C12.1895 8.3991 12.1328 8.35196 12.0677 8.3195C12.0026 8.28703 11.9308 8.27014 11.858 8.27014H6.55795C6.43329 8.27014 6.31372 8.31967 6.22557 8.40782C6.13741 8.49597 6.08789 8.61554 6.08789 8.7402V31.497C6.08789 31.6217 6.13741 31.7412 6.22557 31.8294C6.31372 31.9176 6.43329 31.9671 6.55795 31.9671H25.4426C25.5672 31.9671 25.6868 31.9176 25.775 31.8294C25.8631 31.7412 25.9126 31.6217 25.9126 31.497V8.7402C25.9126 8.61553 25.863 8.49598 25.7749 8.40783C25.6867 8.31968 25.5671 8.27016 25.4425 8.27014Z" fill="#F9F1EF"/>
<path d="M25.4425 8.27014H23.625V31.967H25.4425C25.5042 31.967 25.5654 31.9549 25.6224 31.9312C25.6794 31.9076 25.7312 31.873 25.7749 31.8293C25.8185 31.7857 25.8532 31.7339 25.8768 31.6768C25.9004 31.6198 25.9126 31.5587 25.9126 31.497V8.7402C25.9126 8.67847 25.9004 8.61735 25.8768 8.56032C25.8532 8.50329 25.8185 8.45147 25.7749 8.40782C25.7312 8.36417 25.6794 8.32955 25.6224 8.30592C25.5654 8.2823 25.5042 8.27014 25.4425 8.27014Z" fill="#DDDBDB"/>
<path d="M11.3199 6.16384C11.307 6.04897 11.2523 5.94287 11.1661 5.86581C11.0799 5.78876 10.9684 5.74616 10.8528 5.74615H4.82944C4.70477 5.74615 4.58521 5.79568 4.49705 5.88383C4.4089 5.97199 4.35938 6.09155 4.35938 6.21622V8.74028C4.35938 8.86495 4.4089 8.98451 4.49705 9.07266C4.58521 9.16082 4.70477 9.21034 4.82944 9.21034H11.8576C11.9449 9.21031 12.0306 9.18592 12.1049 9.13992C12.1792 9.09393 12.2392 9.02813 12.2781 8.94993C12.3171 8.87173 12.3335 8.78421 12.3255 8.6972C12.3175 8.61019 12.2854 8.52713 12.2329 8.45734C11.7287 7.78834 11.4134 6.99628 11.3199 6.16384ZM27.1701 5.74615H21.1152C20.9997 5.74616 20.8881 5.78876 20.802 5.86581C20.7158 5.94287 20.6611 6.04897 20.6482 6.16384C20.5547 6.99628 20.2394 7.78834 19.7353 8.45734C19.6827 8.52713 19.6506 8.61019 19.6426 8.6972C19.6346 8.78421 19.651 8.87173 19.69 8.94993C19.729 9.02813 19.789 9.09393 19.8633 9.13992C19.9375 9.18592 20.0232 9.21031 20.1106 9.21034H27.1702C27.2949 9.21034 27.4144 9.16082 27.5026 9.07266C27.5907 8.98451 27.6402 8.86495 27.6402 8.74028V6.21615C27.6402 6.09149 27.5907 5.97195 27.5025 5.88381C27.4143 5.79567 27.2948 5.74615 27.1701 5.74615Z" fill="#565656"/>
<path d="M12.4989 17.6055H9.87143C9.74676 17.6055 9.6272 17.655 9.53905 17.7432C9.45089 17.8313 9.40137 17.9509 9.40137 18.0756V20.7031C9.40137 20.7648 9.41353 20.8259 9.43715 20.883C9.46077 20.94 9.4954 20.9918 9.53905 21.0354C9.58269 21.0791 9.63451 21.1137 9.69154 21.1373C9.74858 21.161 9.8097 21.1731 9.87143 21.1731H12.4989C12.5607 21.1731 12.6218 21.161 12.6788 21.1373C12.7358 21.1137 12.7877 21.0791 12.8313 21.0354C12.875 20.9918 12.9096 20.94 12.9332 20.883C12.9568 20.8259 12.969 20.7648 12.969 20.7031V18.0756C12.969 17.9509 12.9195 17.8313 12.8313 17.7432C12.7432 17.655 12.6236 17.6055 12.4989 17.6055ZM17.3136 17.6055H14.6861C14.5614 17.6055 14.4418 17.655 14.3537 17.7432C14.2655 17.8313 14.216 17.9509 14.216 18.0756V20.7031C14.216 20.7648 14.2282 20.8259 14.2518 20.883C14.2754 20.94 14.31 20.9918 14.3537 21.0354C14.3973 21.0791 14.4491 21.1137 14.5062 21.1373C14.5632 21.161 14.6243 21.1731 14.6861 21.1731H17.3136C17.3753 21.1731 17.4364 21.161 17.4934 21.1373C17.5505 21.1137 17.6023 21.0791 17.6459 21.0354C17.6896 20.9918 17.7242 20.94 17.7478 20.883C17.7715 20.8259 17.7836 20.7648 17.7836 20.7031V18.0756C17.7836 17.9509 17.7341 17.8313 17.6459 17.7432C17.5578 17.655 17.4382 17.6055 17.3136 17.6055ZM22.1282 17.6055H19.5007C19.439 17.6055 19.3779 17.6177 19.3209 17.6413C19.2638 17.6649 19.212 17.6995 19.1684 17.7432C19.1247 17.7868 19.0901 17.8386 19.0665 17.8957C19.0428 17.9527 19.0307 18.0138 19.0307 18.0756V20.7031C19.0307 20.7648 19.0428 20.8259 19.0665 20.883C19.0901 20.94 19.1247 20.9918 19.1684 21.0354C19.212 21.0791 19.2638 21.1137 19.3209 21.1373C19.3779 21.161 19.439 21.1731 19.5007 21.1731H22.1282C22.19 21.1731 22.2511 21.161 22.3081 21.1373C22.3652 21.1137 22.417 21.0791 22.4606 21.0354C22.5043 20.9918 22.5389 20.94 22.5625 20.883C22.5861 20.8259 22.5983 20.7648 22.5983 20.7031V18.0756C22.5983 18.0138 22.5862 17.9527 22.5625 17.8957C22.5389 17.8386 22.5043 17.7868 22.4606 17.7432C22.417 17.6995 22.3652 17.6649 22.3081 17.6413C22.2511 17.6176 22.19 17.6055 22.1282 17.6055ZM12.4989 13.0572H9.87143C9.74676 13.0572 9.6272 13.1067 9.53905 13.1949C9.45089 13.283 9.40137 13.4026 9.40137 13.5273V16.1548C9.40137 16.2794 9.45089 16.399 9.53905 16.4871C9.6272 16.5753 9.74676 16.6248 9.87143 16.6248H12.4989C12.6236 16.6248 12.7432 16.5753 12.8313 16.4871C12.9195 16.399 12.969 16.2794 12.969 16.1548V13.5273C12.969 13.4026 12.9195 13.283 12.8313 13.1949C12.7432 13.1067 12.6236 13.0572 12.4989 13.0572ZM17.3136 13.0572H14.6861C14.5614 13.0572 14.4418 13.1067 14.3537 13.1949C14.2655 13.283 14.216 13.4026 14.216 13.5273V16.1548C14.216 16.2794 14.2655 16.399 14.3537 16.4871C14.4418 16.5753 14.5614 16.6248 14.6861 16.6248H17.3136C17.4382 16.6248 17.5578 16.5753 17.6459 16.4871C17.7341 16.399 17.7836 16.2794 17.7836 16.1548V13.5273C17.7836 13.4026 17.7341 13.283 17.6459 13.1949C17.5578 13.1067 17.4382 13.0572 17.3136 13.0572ZM22.1282 13.0572H19.5007C19.439 13.0572 19.3779 13.0693 19.3209 13.093C19.2638 13.1166 19.212 13.1512 19.1684 13.1949C19.1247 13.2385 19.0901 13.2903 19.0665 13.3474C19.0428 13.4044 19.0307 13.4655 19.0307 13.5273V16.1548C19.0307 16.2165 19.0428 16.2776 19.0665 16.3346C19.0901 16.3917 19.1247 16.4435 19.1684 16.4871C19.212 16.5308 19.2638 16.5654 19.3209 16.589C19.3779 16.6127 19.439 16.6248 19.5007 16.6248H22.1282C22.2529 16.6248 22.3725 16.5753 22.4606 16.4871C22.5488 16.399 22.5983 16.2794 22.5983 16.1548V13.5273C22.5983 13.4655 22.5862 13.4044 22.5625 13.3474C22.5389 13.2903 22.5043 13.2385 22.4606 13.1948C22.417 13.1512 22.3652 13.1166 22.3081 13.093C22.2511 13.0693 22.19 13.0572 22.1282 13.0572ZM21.4531 25.2454H15.9998C15.9381 25.2454 15.877 25.2576 15.8199 25.2812C15.7629 25.3048 15.7111 25.3395 15.6674 25.3831C15.6238 25.4268 15.5891 25.4786 15.5655 25.5356C15.5419 25.5926 15.5297 25.6538 15.5297 25.7155V31.497C15.5297 31.6217 15.5793 31.7412 15.6674 31.8294C15.7556 31.9175 15.8751 31.9671 15.9998 31.9671H21.4531C21.5777 31.9671 21.6973 31.9175 21.7854 31.8294C21.8736 31.7412 21.9231 31.6217 21.9231 31.497V25.7155C21.9231 25.6538 21.911 25.5926 21.8873 25.5356C21.8637 25.4786 21.8291 25.4268 21.7854 25.3831C21.7418 25.3395 21.69 25.3048 21.6329 25.2812C21.5759 25.2576 21.5148 25.2454 21.4531 25.2454Z" fill="#00C1EC"/>
<path d="M21.4529 25.2454H19.7607V31.967H21.4529C21.5146 31.967 21.5757 31.9549 21.6328 31.9313C21.6898 31.9076 21.7416 31.873 21.7853 31.8294C21.8289 31.7857 21.8635 31.7339 21.8871 31.6769C21.9108 31.6198 21.9229 31.5587 21.9229 31.497V25.7155C21.9229 25.5908 21.8734 25.4713 21.7853 25.3831C21.6971 25.2949 21.5775 25.2454 21.4529 25.2454Z" fill="#00AADE"/>
<path d="M16.0005 25.2454H10.5472C10.4855 25.2454 10.4244 25.2576 10.3673 25.2812C10.3103 25.3048 10.2585 25.3395 10.2148 25.3831C10.1712 25.4267 10.1366 25.4786 10.1129 25.5356C10.0893 25.5926 10.0771 25.6538 10.0771 25.7155V31.497C10.0771 31.6217 10.1267 31.7412 10.2148 31.8294C10.303 31.9175 10.4225 31.967 10.5472 31.967H16.0005C16.1251 31.967 16.2447 31.9175 16.3328 31.8294C16.421 31.7412 16.4705 31.6217 16.4705 31.497V25.7155C16.4705 25.6538 16.4584 25.5926 16.4348 25.5356C16.4111 25.4786 16.3765 25.4267 16.3329 25.3831C16.2892 25.3394 16.2374 25.3048 16.1804 25.2812C16.1233 25.2576 16.0622 25.2454 16.0005 25.2454Z" fill="#00C1EC"/>
<path d="M14.3076 25.2452H16.4698V31.9668H14.3076V25.2452Z" fill="#00AADE"/>
<path d="M15.9843 0C12.8774 0 10.3496 2.52775 10.3496 5.63469C10.3496 8.74162 12.8774 11.2694 15.9843 11.2694C19.0913 11.2694 21.619 8.74169 21.619 5.63469C21.619 2.52769 19.0913 0 15.9843 0Z" fill="#EF3A47"/>
<path d="M15.9844 0C15.5809 0 15.1873 0.043 14.8076 0.123938C17.3517 0.666625 19.2656 2.93112 19.2656 5.63469C19.2656 8.33825 17.3516 10.6027 14.8076 11.1454C15.1944 11.2279 15.5889 11.2695 15.9844 11.2694C19.0914 11.2694 21.6191 8.74169 21.6191 5.63469C21.6191 2.52769 19.0914 0 15.9844 0Z" fill="#CE3043"/>
<path d="M18.019 4.746H16.873V3.6C16.8731 3.55813 16.8648 3.51667 16.8488 3.47799C16.8328 3.4393 16.8093 3.40415 16.7797 3.37455C16.7501 3.34494 16.7149 3.32146 16.6762 3.30544C16.6376 3.28942 16.5961 3.28118 16.5542 3.28119H15.4144C15.3726 3.28118 15.3311 3.28942 15.2924 3.30544C15.2537 3.32146 15.2186 3.34494 15.189 3.37455C15.1594 3.40415 15.1359 3.4393 15.1199 3.47799C15.1038 3.51667 15.0956 3.55813 15.0956 3.6V4.74594H13.9497C13.9078 4.74593 13.8663 4.75417 13.8277 4.77019C13.789 4.78621 13.7538 4.80969 13.7242 4.8393C13.6946 4.8689 13.6711 4.90405 13.6551 4.94274C13.6391 4.98142 13.6309 5.02288 13.6309 5.06475V6.20456C13.6309 6.24643 13.6391 6.28789 13.6551 6.32658C13.6711 6.36526 13.6946 6.40041 13.7242 6.43002C13.7538 6.45962 13.789 6.48311 13.8277 6.49913C13.8663 6.51514 13.9078 6.52338 13.9497 6.52338H15.0956V7.66931C15.0956 7.71118 15.1038 7.75264 15.1199 7.79133C15.1359 7.83001 15.1594 7.86516 15.189 7.89477C15.2186 7.92437 15.2537 7.94786 15.2924 7.96387C15.3311 7.97989 15.3726 7.98813 15.4144 7.98813H16.5542C16.5961 7.98813 16.6376 7.97989 16.6762 7.96387C16.7149 7.94786 16.7501 7.92437 16.7797 7.89477C16.8093 7.86516 16.8328 7.83001 16.8488 7.79133C16.8648 7.75264 16.8731 7.71118 16.873 7.66931V6.52338H18.019C18.0608 6.52338 18.1023 6.51513 18.141 6.49911C18.1797 6.48308 18.2148 6.4596 18.2444 6.42999C18.274 6.40039 18.2975 6.36524 18.3135 6.32656C18.3295 6.28788 18.3377 6.24643 18.3377 6.20456V5.06475C18.3377 4.98021 18.3042 4.89914 18.2444 4.83936C18.1846 4.77958 18.1035 4.746 18.019 4.746Z" fill="#F9F1EF"/>
<path d="M22.5534 23.201H9.44662C9.32196 23.201 9.20239 23.2506 9.11424 23.3387C9.02609 23.4269 8.97656 23.5464 8.97656 23.6711V25.7122C8.97656 25.8368 9.02609 25.9564 9.11424 26.0446C9.20239 26.1327 9.32196 26.1822 9.44662 26.1822H22.5534C22.6152 26.1822 22.6763 26.1701 22.7333 26.1465C22.7904 26.1228 22.8422 26.0882 22.8858 26.0446C22.9295 26.0009 22.9641 25.9491 22.9877 25.8921C23.0113 25.835 23.0235 25.7739 23.0235 25.7122V23.6711C23.0235 23.5465 22.974 23.4269 22.8858 23.3387C22.7977 23.2506 22.6781 23.2011 22.5534 23.201Z" fill="#565656"/>
</svg>
