<svg width="24" height="24" viewBox="0 0 24 24" fill="none" xmlns="http://www.w3.org/2000/svg">
<path d="M16.8357 8.11274C19.251 10.4506 20.8807 13.5816 21.4341 16.8954C21.7174 18.5918 21.0627 20.0804 19.9375 21.12C18.8235 22.1493 17.2442 22.75 15.597 22.75H8.40306C6.75586 22.75 5.17649 22.1493 4.06254 21.12C2.93733 20.0804 2.28258 18.5918 2.56588 16.8954C3.23599 12.883 5.3201 9.89741 7.13824 8.13796C7.2307 8.04847 7.32321 7.96078 7.42736 7.88473C7.65241 7.72042 8.05472 7.5576 8.3307 7.51914C8.46805 7.5 8.56681 7.5 8.76433 7.5H15.2357C15.4332 7.5 15.532 7.5 15.6693 7.51914C15.9453 7.5576 16.3476 7.72042 16.5726 7.88473C16.6846 7.9665 16.735 8.01526 16.8357 8.11274Z" fill="#174C90"/>
<path d="M10.6405 1.90644C10.8867 1.65936 11.3517 1.25 11.999 1.25C12.6463 1.25 13.1113 1.65936 13.3575 1.90644C13.656 2.20598 13.8939 2.65371 14.2727 2.85411C14.5859 3.01979 14.9899 2.85885 15.3025 2.77744C15.6004 2.69989 16.0545 2.58244 16.5357 2.64649C16.7448 2.67432 17.0192 2.74083 17.2317 2.9301C17.4835 3.15425 17.5241 3.43315 17.4873 3.64394C17.4425 3.90039 17.2837 4.11086 17.1277 4.31102L16.2354 5.4599C16.0054 5.75681 15.7778 6.06194 15.4722 6.28636C15.2458 6.4526 14.9593 6.5 14.6785 6.5H9.31956C9.03869 6.5 8.75224 6.4526 8.52586 6.28636C8.22026 6.06194 7.99261 5.75681 7.76262 5.4599L6.87029 4.31102C6.71437 4.11086 6.55553 3.9004 6.51075 3.64394C6.47394 3.43315 6.51457 3.15425 6.76632 2.9301C6.97889 2.74083 7.25326 2.67432 7.46236 2.64649C7.94355 2.58244 8.39765 2.69989 8.69558 2.77744C9.00817 2.85885 9.41209 3.01979 9.72532 2.85411C10.1042 2.65371 10.342 2.20598 10.6405 1.90644Z" fill="#174C90"/>
</svg>
