<svg width="48" height="48" viewBox="0 0 48 48" fill="none" xmlns="http://www.w3.org/2000/svg">
<path d="M0 10C0 4.47715 4.47715 0 10 0H38C43.5229 0 48 4.47715 48 10V38C48 43.5229 43.5228 48 38 48H10C4.47715 48 0 43.5228 0 38V10Z" fill="#174C90"/>
<path d="M16.0005 26C15.8112 26.0007 15.6257 25.9476 15.4654 25.847C15.3052 25.7464 15.1767 25.6024 15.095 25.4317C15.0133 25.261 14.9818 25.0706 15.004 24.8827C15.0262 24.6947 15.1013 24.517 15.2205 24.37L25.1205 14.17C25.1947 14.0843 25.2959 14.0264 25.4075 14.0057C25.519 13.9851 25.6342 14.003 25.7342 14.0565C25.8342 14.11 25.9131 14.1959 25.9578 14.3001C26.0026 14.4043 26.0106 14.5207 25.9805 14.63L24.0605 20.65C24.0039 20.8015 23.9849 20.9645 24.0051 21.125C24.0253 21.2855 24.0841 21.4387 24.1766 21.5714C24.269 21.7042 24.3923 21.8125 24.5358 21.8872C24.6793 21.9618 24.8387 22.0005 25.0005 22H32.0005C32.1897 21.9994 32.3752 22.0524 32.5355 22.153C32.6958 22.2536 32.8242 22.3977 32.9059 22.5684C32.9876 22.7391 33.0192 22.9294 32.997 23.1174C32.9748 23.3053 32.8997 23.4831 32.7805 23.63L22.8805 33.83C22.8062 33.9157 22.705 33.9737 22.5935 33.9943C22.482 34.0149 22.3668 33.997 22.2668 33.9435C22.1667 33.89 22.0879 33.8041 22.0431 33.6999C21.9984 33.5957 21.9904 33.4794 22.0205 33.37L23.9405 27.35C23.9971 27.1985 24.0161 27.0355 23.9959 26.875C23.9757 26.7145 23.9168 26.5613 23.8244 26.4286C23.732 26.2958 23.6087 26.1875 23.4652 26.1129C23.3217 26.0382 23.1622 25.9995 23.0005 26H16.0005Z" stroke="white" stroke-width="1.33333" stroke-linecap="round" stroke-linejoin="round"/>
</svg>
