<svg width="32" height="32" viewBox="0 0 32 32" fill="none" xmlns="http://www.w3.org/2000/svg">
<path d="M17.0312 2.8125V4.15625L17.5 4.75H19C19.1326 4.75 19.2598 4.69732 19.3536 4.60355C19.4473 4.50979 19.5 4.38261 19.5 4.25V2.75C19.5 2.61739 19.4473 2.49021 19.3536 2.39645C19.2598 2.30268 19.1326 2.25 19 2.25H17.5L17.0312 2.8125Z" fill="#FF8086"/>
<path d="M16 2.25H17.5V4.75H16V2.25Z" fill="#E5646E"/>
<path d="M16.5 7.75H15.5V2.25C15.5 2.11739 15.5527 1.99021 15.6464 1.89645C15.7402 1.80268 15.8674 1.75 16 1.75C16.1326 1.75 16.2598 1.80268 16.3536 1.89645C16.4473 1.99021 16.5 2.11739 16.5 2.25V7.75Z" fill="#FFC269"/>
<path d="M29.175 11.25H2.82484C2.72812 11.25 2.63348 11.2781 2.55239 11.3308C2.4713 11.3835 2.40723 11.4586 2.36796 11.5469L0.944336 14.75L2.21865 15.1562H29.9061L31.0555 14.75L29.6319 11.5469C29.5926 11.4586 29.5285 11.3835 29.4474 11.3308C29.3663 11.2781 29.2717 11.25 29.175 11.25Z" fill="#FF8086"/>
<path d="M31.1872 15.0469L31.0553 14.75H0.94417L0.812232 15.0469C0.665232 15.3776 0.907294 15.75 1.26911 15.75H1.49973L1.82786 16.2188H30.1039L30.4997 15.75H30.7304C31.0922 15.75 31.3342 15.3776 31.1872 15.0469Z" fill="#E5646E"/>
<path d="M30.5003 29.75H2.10449V16.25H8.0003L16.0003 8.97919L24.0004 16.25L30.5003 16.75V29.75Z" fill="#FFC269"/>
<path d="M13 23.75V28.75H19V23.75C19 23.6174 18.9473 23.4902 18.8536 23.3964C18.7598 23.3027 18.6326 23.25 18.5 23.25H16.5L16.0208 23.7917L15.5 23.25H13.5C13.3674 23.25 13.2402 23.3027 13.1464 23.3964C13.0527 23.4902 13 23.6174 13 23.75Z" fill="#C38C66"/>
<path d="M15.5 23.25H16.5V28.25H15.5V23.25Z" fill="#B57F5F"/>
<path d="M16 19.75C17.6569 19.75 19 18.4069 19 16.75C19 15.0931 17.6569 13.75 16 13.75C14.3431 13.75 13 15.0931 13 16.75C13 18.4069 14.3431 19.75 16 19.75Z" fill="#FFF0AF"/>
<path d="M16 18.75C17.1046 18.75 18 17.8546 18 16.75C18 15.6454 17.1046 14.75 16 14.75C14.8954 14.75 14 15.6454 14 16.75C14 17.8546 14.8954 18.75 16 18.75Z" fill="white"/>
<path d="M17.4473 16.0264C17.3233 15.7793 17.0234 15.6802 16.7764 15.8027L15.7764 16.3027L15.5 16.75V17.75C15.5 18.0264 15.7236 18.25 16 18.25C16.2764 18.25 16.5 18.0264 16.5 17.75V17.0591L17.2236 16.6972C17.2824 16.6679 17.3348 16.6272 17.3778 16.5776C17.4208 16.528 17.4537 16.4704 17.4744 16.4081C17.4952 16.3458 17.5035 16.28 17.4988 16.2145C17.4942 16.149 17.4766 16.0851 17.4473 16.0264Z" fill="#857E87"/>
<path d="M12 28.25V29.75H20V28.25C20 28.1174 19.9473 27.9902 19.8536 27.8964C19.7598 27.8027 19.6326 27.75 19.5 27.75H12.5C12.3674 27.75 12.2402 27.8027 12.1464 27.8964C12.0527 27.9902 12 28.1174 12 28.25Z" fill="#C8C5C9"/>
<path d="M24.0001 15.75L16 7.75L8 15.75H1.5V29.75H2.5V17.75C2.5 17.1977 2.94769 16.75 3.5 16.75H8.49956C8.6966 16.75 8.8917 16.7112 9.07374 16.6358C9.25577 16.5604 9.42118 16.4499 9.5605 16.3106L16 9.87131L22.4394 16.3105C22.5788 16.4498 22.7442 16.5603 22.9262 16.6357C23.1082 16.7111 23.3033 16.7499 23.5004 16.7499H30.5V15.7499H24.0001V15.75Z" fill="#FFA95F"/>
<path d="M24 16.25C23.9344 16.2501 23.8693 16.2372 23.8087 16.212C23.748 16.1869 23.6929 16.15 23.6465 16.1035L16 8.45704L8.35355 16.1035C8.15823 16.2988 7.8418 16.2988 7.64648 16.1035C7.45117 15.9082 7.45117 15.5917 7.64648 15.3964L15.6465 7.39642C15.6929 7.34998 15.748 7.31314 15.8087 7.28801C15.8693 7.26287 15.9344 7.24994 16 7.24994C16.0657 7.24994 16.1307 7.26287 16.1914 7.28801C16.252 7.31314 16.3071 7.34998 16.3535 7.39642L24.3535 15.3964C24.4 15.4428 24.4368 15.4979 24.462 15.5586C24.4871 15.6193 24.5 15.6843 24.5 15.7499C24.5 15.8156 24.4871 15.8806 24.462 15.9413C24.4368 16.0019 24.4 16.0571 24.3535 16.1035C24.3072 16.15 24.2521 16.1869 24.1914 16.212C24.1308 16.2372 24.0657 16.2501 24 16.25Z" fill="#DB4655"/>
<path d="M31.5 30.25H0.5C0.223625 30.25 0 30.0264 0 29.75C0 29.4736 0.223625 29.25 0.5 29.25H31.5C31.7764 29.25 32 29.4736 32 29.75C32 30.0264 31.7764 30.25 31.5 30.25Z" fill="#DAD8DB"/>
<path d="M4.5 25.75H10C10.1326 25.75 10.2598 25.6973 10.3536 25.6036C10.4473 25.5098 10.5 25.3826 10.5 25.25V23.75C10.5 23.6174 10.4473 23.4902 10.3536 23.3964C10.2598 23.3027 10.1326 23.25 10 23.25H7.5L6.97913 23.6042L6.5 23.25H4.5C4.36739 23.25 4.24021 23.3027 4.14645 23.3964C4.05268 23.4902 4 23.6174 4 23.75V25.25C4 25.3826 4.05268 25.5098 4.14645 25.6036C4.24021 25.6973 4.36739 25.75 4.5 25.75Z" fill="#EDF4FF"/>
<path d="M4.5 24.25V23.25H4C3.86739 23.25 3.74021 23.3027 3.64645 23.3964C3.55268 23.4902 3.5 23.6174 3.5 23.75V25.75C3.5 25.8826 3.55268 26.0098 3.64645 26.1036C3.74021 26.1973 3.86739 26.25 4 26.25H6.5L7 25.9609L7.5 26.25H10C10.1326 26.25 10.2598 26.1973 10.3536 26.1036C10.4473 26.0098 10.5 25.8826 10.5 25.75V25.25H5.5C4.94769 25.25 4.5 24.8023 4.5 24.25Z" fill="#DBEAFF"/>
<path d="M6.97656 25.5469L6.5 25.25V23.25H7.5V25.25L6.97656 25.5469Z" fill="#FFE09F"/>
<path d="M6.5 25.25H7.5V26.25H6.5V25.25Z" fill="#FFC269"/>
<path d="M16 17.25C16.2761 17.25 16.5 17.0261 16.5 16.75C16.5 16.4739 16.2761 16.25 16 16.25C15.7239 16.25 15.5 16.4739 15.5 16.75C15.5 17.0261 15.7239 17.25 16 17.25Z" fill="#4B3F4E"/>
<path d="M4.5 20.75H10C10.1326 20.75 10.2598 20.6973 10.3536 20.6036C10.4473 20.5098 10.5 20.3826 10.5 20.25V18.75C10.5 18.6174 10.4473 18.4902 10.3536 18.3964C10.2598 18.3027 10.1326 18.25 10 18.25H7.5L6.97913 18.6042L6.5 18.25H4.5C4.36739 18.25 4.24021 18.3027 4.14645 18.3964C4.05268 18.4902 4 18.6174 4 18.75V20.25C4 20.3826 4.05268 20.5098 4.14645 20.6036C4.24021 20.6973 4.36739 20.75 4.5 20.75Z" fill="#EDF4FF"/>
<path d="M4.5 19.25V18.25H4C3.86739 18.25 3.74021 18.3027 3.64645 18.3964C3.55268 18.4902 3.5 18.6174 3.5 18.75V20.75C3.5 20.8826 3.55268 21.0098 3.64645 21.1036C3.74021 21.1973 3.86739 21.25 4 21.25H6.5L7 20.9609L7.5 21.25H10C10.1326 21.25 10.2598 21.1973 10.3536 21.1036C10.4473 21.0098 10.5 20.8826 10.5 20.75V20.25H5.5C4.94769 20.25 4.5 19.8023 4.5 19.25Z" fill="#DBEAFF"/>
<path d="M6.97656 20.5469L6.5 20.25V18.25H7.5V20.25L6.97656 20.5469Z" fill="#FFE09F"/>
<path d="M6.5 20.25H7.5V21.25H6.5V20.25Z" fill="#FFC269"/>
<path d="M22.5 25.75H28C28.1326 25.75 28.2598 25.6973 28.3536 25.6036C28.4473 25.5098 28.5 25.3826 28.5 25.25V23.75C28.5 23.6174 28.4473 23.4902 28.3536 23.3964C28.2598 23.3027 28.1326 23.25 28 23.25H25.5L24.9791 23.6042L24.5 23.25H22.5C22.3674 23.25 22.2402 23.3027 22.1464 23.3964C22.0527 23.4902 22 23.6174 22 23.75V25.25C22 25.3826 22.0527 25.5098 22.1464 25.6036C22.2402 25.6973 22.3674 25.75 22.5 25.75Z" fill="#EDF4FF"/>
<path d="M22.5 24.25V23.25H22C21.8674 23.25 21.7402 23.3027 21.6464 23.3964C21.5527 23.4902 21.5 23.6174 21.5 23.75V25.75C21.5 25.8826 21.5527 26.0098 21.6464 26.1036C21.7402 26.1973 21.8674 26.25 22 26.25H24.5L25 25.9609L25.5 26.25H28C28.1326 26.25 28.2598 26.1973 28.3536 26.1036C28.4473 26.0098 28.5 25.8826 28.5 25.75V25.25H23.5C22.9477 25.25 22.5 24.8023 22.5 24.25Z" fill="#DBEAFF"/>
<path d="M24.9766 25.5469L24.5 25.25V23.25H25.5V25.25L24.9766 25.5469Z" fill="#FFE09F"/>
<path d="M24.5 25.25H25.5V26.25H24.5V25.25Z" fill="#FFC269"/>
<path d="M22.5 20.75H28C28.1326 20.75 28.2598 20.6973 28.3536 20.6036C28.4473 20.5098 28.5 20.3826 28.5 20.25V18.75C28.5 18.6174 28.4473 18.4902 28.3536 18.3964C28.2598 18.3027 28.1326 18.25 28 18.25H25.5L24.9791 18.6042L24.5 18.25H22.5C22.3674 18.25 22.2402 18.3027 22.1464 18.3964C22.0527 18.4902 22 18.6174 22 18.75V20.25C22 20.3826 22.0527 20.5098 22.1464 20.6036C22.2402 20.6973 22.3674 20.75 22.5 20.75Z" fill="#EDF4FF"/>
<path d="M22.5 19.25V18.25H22C21.8674 18.25 21.7402 18.3027 21.6464 18.3964C21.5527 18.4902 21.5 18.6174 21.5 18.75V20.75C21.5 20.8826 21.5527 21.0098 21.6464 21.1036C21.7402 21.1973 21.8674 21.25 22 21.25H24.5L25 20.9609L25.5 21.25H28C28.1326 21.25 28.2598 21.1973 28.3536 21.1036C28.4473 21.0098 28.5 20.8826 28.5 20.75V20.25H23.5C22.9477 20.25 22.5 19.8023 22.5 19.25Z" fill="#DBEAFF"/>
<path d="M24.9766 20.5469L24.5 20.25V18.25H25.5V20.25L24.9766 20.5469Z" fill="#FFE09F"/>
<path d="M24.5 20.25H25.5V21.25H24.5V20.25Z" fill="#FFC269"/>
</svg>
