<svg width="32" height="32" viewBox="0 0 32 32" fill="none" xmlns="http://www.w3.org/2000/svg">
<path fill-rule="evenodd" clip-rule="evenodd" d="M26.5024 0.941162C26.7118 0.941137 26.9191 0.982356 27.1126 1.06247C27.306 1.14257 27.4817 1.26 27.6298 1.40805C27.7778 1.55609 27.8953 1.73184 27.9754 1.92528C28.0555 2.11871 28.0967 2.32603 28.0967 2.53539V29.4646C28.0967 29.6739 28.0555 29.8813 27.9753 30.0747C27.8952 30.2681 27.7778 30.4439 27.6298 30.5919C27.4817 30.7399 27.306 30.8574 27.1125 30.9375C26.9191 31.0176 26.7118 31.0588 26.5024 31.0588H5.49852C5.28916 31.0588 5.08184 31.0176 4.88841 30.9375C4.69498 30.8574 4.51922 30.74 4.37118 30.5919C4.22314 30.4439 4.10571 30.2681 4.0256 30.0747C3.94549 29.8813 3.90427 29.6739 3.9043 29.4646V2.53539C3.90429 2.32603 3.94552 2.11872 4.02563 1.9253C4.10575 1.73187 4.22318 1.55612 4.37122 1.40808C4.51926 1.26004 4.69501 1.14261 4.88843 1.0625C5.08185 0.982384 5.28917 0.941154 5.49852 0.941162H26.5024ZM6.15597 3.1929V19.5569H25.845V3.1929H6.15597ZM16.5129 22.7341C16.5222 22.6639 16.5075 22.5927 16.4711 22.5319C16.4348 22.4711 16.379 22.4245 16.3127 22.3994C16.2465 22.3744 16.1738 22.3726 16.1063 22.3941C16.0389 22.4157 15.9807 22.4595 15.9413 22.5183L14.138 25.208C14.1117 25.2472 14.0946 25.2919 14.0879 25.3388C14.0813 25.3856 14.0854 25.4333 14.0998 25.4783C14.1142 25.5234 14.1386 25.5646 14.1712 25.5988C14.2038 25.6331 14.2437 25.6596 14.288 25.6762L15.616 26.1767C15.6913 26.2051 15.7529 26.2614 15.7879 26.3339C15.8229 26.4064 15.8287 26.4896 15.804 26.5663L15.3417 28.0044C15.3193 28.0742 15.322 28.1497 15.3494 28.2178C15.3768 28.2858 15.4273 28.3421 15.4919 28.3768C15.5565 28.4116 15.6313 28.4225 15.7032 28.4079C15.775 28.3932 15.8395 28.3538 15.8853 28.2965L17.8388 25.8557C17.8682 25.819 17.8889 25.7762 17.8995 25.7304C17.9101 25.6846 17.9103 25.637 17.9 25.5912C17.8898 25.5453 17.8693 25.5023 17.8402 25.4654C17.8111 25.4285 17.7741 25.3986 17.7319 25.3779L16.4614 24.7554C16.4024 24.7265 16.354 24.6797 16.3229 24.6218C16.2919 24.5639 16.2798 24.4977 16.2884 24.4326L16.5129 22.7341Z" fill="#A4D4FF"/>
<path fill-rule="evenodd" clip-rule="evenodd" d="M9.46094 5.02441H22.5406V10.4017H9.46094V5.02441Z" fill="#A4D4FF"/>
<path fill-rule="evenodd" clip-rule="evenodd" d="M26.5022 0.501953C26.7692 0.501937 27.0337 0.554522 27.2804 0.656706C27.5271 0.75889 27.7513 0.908672 27.9401 1.0975C28.1289 1.28632 28.2787 1.5105 28.3809 1.75721C28.4831 2.00393 28.5357 2.26836 28.5357 2.5354V29.4646C28.5357 30.0039 28.3214 30.5211 27.9401 30.9025C27.5587 31.2838 27.0415 31.498 26.5022 31.498H5.49829C5.23125 31.4981 4.96682 31.4455 4.7201 31.3433C4.47339 31.2411 4.24921 31.0913 4.06039 30.9025C3.87156 30.7137 3.72178 30.4895 3.6196 30.2428C3.51741 29.9961 3.46483 29.7316 3.46484 29.4646V2.5354C3.46484 1.99609 3.67908 1.47888 4.06043 1.09753C4.44177 0.71619 4.95898 0.501953 5.49829 0.501953H26.5022ZM26.5022 1.38038H5.49829C5.3466 1.38037 5.1964 1.41023 5.05626 1.46827C4.91612 1.52631 4.78879 1.61139 4.68153 1.71864C4.57428 1.8259 4.4892 1.95323 4.43116 2.09337C4.37312 2.23351 4.34326 2.38371 4.34328 2.5354V29.4646C4.34327 29.6163 4.37314 29.7665 4.43118 29.9066C4.48922 30.0467 4.5743 30.1741 4.68155 30.2813C4.78881 30.3886 4.91614 30.4737 5.05627 30.5317C5.19641 30.5897 5.34661 30.6196 5.49829 30.6196H26.5022C26.6539 30.6196 26.8041 30.5898 26.9442 30.5317C27.0844 30.4737 27.2117 30.3886 27.319 30.2813C27.4262 30.1741 27.5113 30.0468 27.5693 29.9066C27.6274 29.7665 27.6572 29.6163 27.6572 29.4646V2.5354C27.6572 2.38372 27.6274 2.23352 27.5693 2.09338C27.5113 1.95325 27.4262 1.82592 27.3189 1.71866C27.2117 1.61141 27.0844 1.52633 26.9442 1.46829C26.8041 1.41025 26.6539 1.38038 26.5022 1.38038ZM17.124 21.461L16.7354 24.4007L18.2764 25.1558C18.3355 25.1847 18.3873 25.2266 18.428 25.2782C18.4688 25.3299 18.4974 25.39 18.5117 25.4542C18.5261 25.5184 18.5259 25.5851 18.511 25.6492C18.4962 25.7132 18.4672 25.7732 18.426 25.8246L15.1626 29.902C15.0984 29.9822 15.0082 30.0374 14.9076 30.0579C14.807 30.0784 14.7023 30.0631 14.6119 30.0145C14.5214 29.9659 14.4508 29.8871 14.4124 29.7919C14.374 29.6967 14.3702 29.591 14.4016 29.4932L15.3491 26.5456L13.7625 25.9477C13.7006 25.9244 13.6447 25.8873 13.5991 25.8394C13.5534 25.7914 13.5193 25.7337 13.4991 25.6707C13.4789 25.6076 13.4732 25.5408 13.4825 25.4753C13.4917 25.4097 13.5157 25.3471 13.5526 25.2921L16.3238 21.1588C16.379 21.0764 16.4604 21.0152 16.5548 20.985C16.6492 20.9548 16.751 20.9574 16.8438 20.9924C16.9365 21.0274 17.0146 21.0928 17.0655 21.1779C17.1164 21.2629 17.137 21.3627 17.124 21.461ZM16.0069 23.2088L14.5907 25.3211L16.0501 25.8709C16.1556 25.9107 16.2417 25.9895 16.2908 26.091C16.3398 26.1925 16.3479 26.309 16.3133 26.4164L15.9684 27.4896L17.3978 25.7035L16.0654 25.0505C15.9828 25.0101 15.9149 24.9447 15.8715 24.8636C15.828 24.7825 15.8111 24.6898 15.8232 24.5986L16.0069 23.2088ZM6.15573 2.75369H25.8448C25.9613 2.75369 26.073 2.79996 26.1553 2.88233C26.2377 2.9647 26.284 3.07642 26.284 3.1929V19.5569C26.284 19.6734 26.2377 19.7851 26.1553 19.8675C26.073 19.9498 25.9613 19.9961 25.8448 19.9961H6.15573C6.03924 19.9961 5.92753 19.9498 5.84516 19.8675C5.76279 19.7851 5.71651 19.6734 5.71651 19.5569V3.1929C5.71651 3.07642 5.76279 2.9647 5.84516 2.88233C5.92753 2.79996 6.03924 2.75369 6.15573 2.75369ZM6.59495 3.63212V19.1177H25.4056V3.63212H6.59495ZM19.3259 14.4525C20.18 14.4525 20.8733 15.1459 20.8733 16C20.8733 16.8541 20.18 17.5475 19.3259 17.5475C18.4718 17.5475 17.7783 16.8541 17.7783 16C17.7783 15.1459 18.4718 14.4525 19.3259 14.4525ZM19.3259 15.3309C18.9565 15.3309 18.6568 15.6307 18.6568 16C18.6568 16.3692 18.9565 16.669 19.3259 16.669C19.6951 16.669 19.9949 16.3692 19.9949 16C19.9949 15.6307 19.6951 15.3309 19.3259 15.3309ZM16.0002 14.4525C16.8543 14.4525 17.5477 15.1459 17.5477 16C17.5477 16.8541 16.8543 17.5475 16.0002 17.5475C15.1462 17.5475 14.4528 16.8541 14.4528 16C14.4528 15.1459 15.1462 14.4525 16.0002 14.4525ZM16.0002 15.3309C15.631 15.3309 15.3312 15.6307 15.3312 16C15.3312 16.3692 15.631 16.669 16.0002 16.669C16.3695 16.669 16.6693 16.3692 16.6693 16C16.6693 15.6307 16.3695 15.3309 16.0002 15.3309ZM9.97063 13.2508C9.72819 13.2508 9.53142 13.054 9.53142 12.8116C9.53142 12.5692 9.72819 12.3724 9.97063 12.3724H11.4138C11.6562 12.3724 11.853 12.5692 11.853 12.8116C11.853 13.054 11.6562 13.2508 11.4138 13.2508H9.97063ZM18.1168 13.2508C17.8743 13.2508 17.6776 13.054 17.6776 12.8116C17.6776 12.5692 17.8743 12.3724 18.1168 12.3724H19.56C19.8023 12.3724 19.9992 12.5692 19.9992 12.8116C19.9992 13.054 19.8023 13.2508 19.56 13.2508H18.1168ZM20.8321 13.2508C20.5897 13.2508 20.3929 13.054 20.3929 12.8116C20.3929 12.5692 20.5897 12.3724 20.8321 12.3724H22.2753C22.5177 12.3724 22.7145 12.5692 22.7145 12.8116C22.7145 13.054 22.5177 13.2508 22.2753 13.2508H20.8321ZM12.686 13.2508C12.4436 13.2508 12.2468 13.054 12.2468 12.8116C12.2468 12.5692 12.4436 12.3724 12.686 12.3724H14.1292C14.3716 12.3724 14.5684 12.5692 14.5684 12.8116C14.5684 13.054 14.3716 13.2508 14.1292 13.2508H12.686ZM15.4013 13.2508C15.159 13.2508 14.9621 13.054 14.9621 12.8116C14.9621 12.5692 15.159 12.3724 15.4013 12.3724H16.8445C17.087 12.3724 17.2838 12.5692 17.2838 12.8116C17.2838 13.054 17.087 13.2508 16.8445 13.2508H15.4013ZM12.6746 14.4525C13.5287 14.4525 14.2222 15.1459 14.2222 16C14.2222 16.8541 13.5287 17.5475 12.6746 17.5475C11.8205 17.5475 11.1272 16.8541 11.1272 16C11.1272 15.1459 11.8205 14.4525 12.6746 14.4525ZM12.6746 15.3309C12.3054 15.3309 12.0056 15.6307 12.0056 16C12.0056 16.3692 12.3054 16.669 12.6746 16.669C13.044 16.669 13.3437 16.3692 13.3437 16C13.3437 15.6307 13.044 15.3309 12.6746 15.3309ZM22.54 10.8408H9.46045C9.34397 10.8408 9.23225 10.7946 9.14988 10.7122C9.06751 10.6298 9.02124 10.5181 9.02124 10.4016V5.02437C9.02124 4.90788 9.06751 4.79617 9.14988 4.7138C9.23225 4.63143 9.34397 4.58515 9.46045 4.58515H22.54C22.6565 4.58515 22.7682 4.63143 22.8506 4.7138C22.933 4.79617 22.9793 4.90788 22.9793 5.02437V10.4016C22.9793 10.5181 22.933 10.6298 22.8506 10.7122C22.7682 10.7946 22.6565 10.8408 22.54 10.8408ZM11.5341 5.46358H9.89967V9.96241H11.5341V5.46358ZM14.2579 5.46358H12.4125V9.96241H14.2579V5.46358ZM16.9816 5.46358H15.1363V9.96241H16.9816V5.46358ZM19.7054 5.46358H17.8601V9.96241H19.7054V5.46358ZM20.5838 9.96241H22.1008V5.46358H20.5838V9.96241Z" fill="#1F4571"/>
</svg>
