<svg width="32" height="25" viewBox="0 0 32 25" fill="none" xmlns="http://www.w3.org/2000/svg">
<path d="M14.5 18.5002H17.5V23.0003H14.5V18.5002Z" fill="#5D5360"/>
<path d="M17.5 23.0001H15.5V21.0001C15.5 20.4478 15.9477 20.0001 16.5 20.0001H17.5V23.0001Z" fill="#6F6571"/>
<path d="M20.0001 25.0001H12C11.8674 25.0001 11.7402 24.9474 11.6464 24.8537C11.5527 24.7599 11.5 24.6327 11.5 24.5001V23.5001C11.5 23.3675 11.5527 23.2403 11.6464 23.1466C11.7402 23.0528 11.8674 23.0001 12 23.0001H20.0001C20.1327 23.0001 20.2598 23.0528 20.3536 23.1466C20.4474 23.2403 20.5001 23.3675 20.5001 23.5001V24.5001C20.5001 24.6327 20.4474 24.7599 20.3536 24.8537C20.2598 24.9474 20.1327 25.0001 20.0001 25.0001Z" fill="#AEA8AF"/>
<path d="M31.9725 16.6715L29.4725 1.67137C29.3118 0.703123 28.4822 0 27.4998 0H4.50008C3.51865 0 2.68902 0.702623 2.5274 1.67137L0.0274022 16.6715C-0.0205568 16.958 -0.00542876 17.2515 0.071731 17.5316C0.148891 17.8116 0.286224 18.0715 0.474151 18.293C0.661773 18.5147 0.895499 18.6929 1.15903 18.815C1.42257 18.9371 1.70957 19.0003 2.00002 19.0001H29.9997C30.5891 19.0001 31.1457 18.7423 31.5261 18.2926C31.7141 18.0712 31.8514 17.8114 31.9285 17.5314C32.0056 17.2514 32.0206 16.9579 31.9725 16.6715Z" fill="#DBD9DC"/>
<path d="M2.57646 9.99994H7.67309C7.96584 9.99994 8.19596 10.2503 8.17134 10.5421L7.95996 13.0421C7.9494 13.1669 7.89234 13.2833 7.80006 13.3681C7.70779 13.4529 7.58703 13.4999 7.46171 13.4999H2.15977C1.85077 13.4999 1.61577 13.2225 1.66659 12.9178L2.08327 10.4178C2.10274 10.301 2.16298 10.195 2.25329 10.1185C2.34359 10.0419 2.45811 9.99996 2.57646 9.99994ZM3.32646 5.49994H8.05359C8.34634 5.49994 8.57646 5.75032 8.55184 6.04207L8.34046 8.54207C8.3299 8.66694 8.27284 8.7833 8.18056 8.8681C8.08829 8.95289 7.96753 8.99995 7.84221 8.99994H2.90977C2.60077 8.99994 2.36577 8.7225 2.41659 8.41775L2.83327 5.91775C2.85274 5.80101 2.91298 5.69496 3.00329 5.61845C3.09359 5.54195 3.20811 5.49996 3.32646 5.49994ZM29.09 8.99994H24.1578C24.0325 8.99993 23.9118 8.95287 23.8195 8.86808C23.7272 8.78328 23.6702 8.66694 23.6596 8.54207L23.4483 6.04207C23.4236 5.75038 23.6537 5.49994 23.9465 5.49994H28.6733C28.7917 5.49994 28.9062 5.54193 28.9965 5.61844C29.0868 5.69494 29.1471 5.80101 29.1665 5.91775L29.5831 8.41775C29.634 8.7225 29.399 8.99994 29.09 8.99994ZM22.151 8.99994H17.0001C16.8675 8.99994 16.7403 8.94726 16.6465 8.85349C16.5528 8.75973 16.5001 8.63255 16.5001 8.49994V5.99994C16.5001 5.86733 16.5528 5.74016 16.6465 5.64639C16.7403 5.55262 16.8675 5.49994 17.0001 5.49994H21.9397C22.065 5.49995 22.1858 5.54701 22.278 5.6318C22.3703 5.7166 22.4274 5.83295 22.438 5.95782L22.6493 8.45782C22.674 8.74957 22.4438 8.99994 22.151 8.99994ZM16.5001 3.99994V1.49994C16.5001 1.36733 16.5528 1.24016 16.6466 1.14639C16.7404 1.05262 16.8675 0.99994 17.0001 0.99994H21.5594C21.6847 0.999948 21.8055 1.04701 21.8977 1.1318C21.99 1.2166 22.0471 1.33295 22.0576 1.45782L22.269 3.95782C22.2936 4.2495 22.0635 4.49994 21.7707 4.49994H17.0001C16.8675 4.49994 16.7404 4.44726 16.6466 4.35349C16.5528 4.25973 16.5001 4.13255 16.5001 3.99994ZM15.0001 4.49994H10.2295C9.93671 4.49994 9.70659 4.24957 9.73121 3.95782L9.94259 1.45782C9.95314 1.33294 10.0102 1.21658 10.1025 1.13179C10.1948 1.04699 10.3155 0.999933 10.4408 0.99994H15.0001C15.1327 0.99994 15.2599 1.05262 15.3536 1.14639C15.4474 1.24016 15.5001 1.36733 15.5001 1.49994V3.99994C15.5001 4.13255 15.4474 4.25973 15.3536 4.35349C15.2599 4.44726 15.1327 4.49994 15.0001 4.49994ZM15.5001 5.99994V8.49994C15.5001 8.63255 15.4474 8.75973 15.3536 8.85349C15.2599 8.94726 15.1327 8.99994 15.0001 8.99994H9.84896C9.55621 8.99994 9.32609 8.7495 9.35071 8.45782L9.56209 5.95782C9.57264 5.83294 9.62971 5.71658 9.72199 5.63179C9.81426 5.54699 9.93502 5.49993 10.0603 5.49994H15.0001C15.1327 5.49994 15.2599 5.55262 15.3536 5.64639C15.4474 5.74016 15.5001 5.86733 15.5001 5.99994ZM9.67984 9.99994H15.0001C15.1327 9.99994 15.2599 10.0526 15.3536 10.1464C15.4474 10.2402 15.5001 10.3673 15.5001 10.4999V12.9999C15.5001 13.1325 15.4474 13.2597 15.3536 13.3535C15.2599 13.4473 15.1327 13.4999 15.0001 13.4999H9.46846C9.17571 13.4999 8.94559 13.2495 8.97021 12.9578L9.18159 10.4578C9.19216 10.3329 9.24923 10.2166 9.3415 10.1318C9.43377 10.047 9.55452 9.99995 9.67984 9.99994ZM15.5001 15V17.5C15.5001 17.6326 15.4474 17.7598 15.3536 17.8536C15.2599 17.9473 15.1327 18 15.0001 18H9.08796C8.79521 18 8.56509 17.7496 8.58971 17.4579L8.80109 14.9579C8.81164 14.833 8.86871 14.7166 8.96099 14.6318C9.05326 14.5471 9.17402 14.5 9.29934 14.5H15.0001C15.1327 14.5 15.2599 14.5527 15.3536 14.6464C15.4474 14.7402 15.5001 14.8674 15.5001 15ZM17.0001 14.5H22.7005C22.8258 14.5 22.9466 14.5471 23.0389 14.6319C23.1311 14.7167 23.1882 14.833 23.1988 14.9579L23.4101 17.4579C23.4348 17.7496 23.2046 18 22.9118 18H17.0001C16.8675 18 16.7404 17.9473 16.6466 17.8536C16.5528 17.7598 16.5001 17.6326 16.5001 17.5V15C16.5001 14.8674 16.5528 14.7402 16.6466 14.6464C16.7404 14.5527 16.8675 14.5 17.0001 14.5ZM16.5001 13V10.5C16.5001 10.3674 16.5528 10.2402 16.6466 10.1464C16.7404 10.0527 16.8675 10 17.0001 10H22.3201C22.4455 10 22.5662 10.0471 22.6585 10.1319C22.7508 10.2167 22.8078 10.333 22.8184 10.4579L23.0297 12.9579C23.0544 13.2496 22.8243 13.5 22.5315 13.5H17.0001C16.8675 13.5 16.7404 13.4473 16.6466 13.3536C16.5528 13.2598 16.5001 13.1326 16.5001 13ZM24.3269 9.99994H29.4233C29.5416 9.99994 29.6562 10.0419 29.7465 10.1184C29.8368 10.1949 29.897 10.301 29.9165 10.4178L30.3331 12.9178C30.3839 13.2225 30.1488 13.4999 29.8399 13.4999H24.5381C24.4128 13.4999 24.2921 13.4529 24.1998 13.3681C24.1075 13.2833 24.0505 13.1669 24.0399 13.0421L23.8286 10.5421C23.804 10.2504 24.0341 9.99994 24.3269 9.99994ZM28.4165 1.41769L28.8331 3.91769C28.884 4.22244 28.6489 4.49988 28.34 4.49988H23.7775C23.6521 4.49987 23.5314 4.45281 23.4391 4.36802C23.3469 4.28322 23.2898 4.16687 23.2792 4.042L23.0679 1.542C23.0432 1.25032 23.2733 0.999878 23.5661 0.999878H27.9233C28.0417 0.999895 28.1562 1.04189 28.2465 1.1184C28.3368 1.1949 28.397 1.30095 28.4165 1.41769ZM3.58334 1.41769C3.60279 1.30094 3.66303 1.19488 3.75334 1.11838C3.84365 1.04187 3.95817 0.999881 4.07652 0.999878H8.43415C8.7269 0.999878 8.95702 1.25025 8.9324 1.542L8.72102 4.042C8.71047 4.16688 8.6534 4.28324 8.56112 4.36803C8.46885 4.45283 8.34809 4.49988 8.22277 4.49988H3.65984C3.35084 4.49988 3.11584 4.22244 3.16665 3.91769L3.58334 1.41769ZM1.23727 17.6466C1.14327 17.5358 1.07457 17.4058 1.03595 17.2657C0.997325 17.1256 0.989716 16.9788 1.01365 16.8355L1.33327 14.9179C1.35273 14.8011 1.41297 14.6951 1.50328 14.6186C1.59358 14.5421 1.7081 14.5001 1.82646 14.5001H7.29259C7.58534 14.5001 7.81546 14.7505 7.79084 15.0422L7.57946 17.5422C7.5689 17.6671 7.51184 17.7834 7.41956 17.8682C7.32729 17.953 7.20653 18.0001 7.08121 18.0001H1.99996C1.85477 18.0002 1.71131 17.9686 1.57959 17.9075C1.44786 17.8465 1.33104 17.7574 1.23727 17.6466ZM30.763 17.6461C30.6693 17.7571 30.5524 17.8464 30.4206 17.9075C30.2888 17.9687 30.1452 18.0002 29.9998 18.0001H24.9186C24.7933 18.0001 24.6725 17.953 24.5802 17.8682C24.488 17.7834 24.4309 17.6671 24.4203 17.5422L24.209 15.0422C24.1843 14.7505 24.4145 14.5001 24.7073 14.5001H30.1733C30.2916 14.5001 30.4062 14.5421 30.4965 14.6186C30.5868 14.6951 30.647 14.8011 30.6665 14.9179L30.9861 16.836C31.0101 16.9791 31.0026 17.1258 30.9641 17.2657C30.9255 17.4056 30.8569 17.5354 30.763 17.6461Z" fill="#5A78BE"/>
<path d="M14 24.5001V23.5001C14 23.3675 14.0527 23.2403 14.1464 23.1466C14.2402 23.0528 14.3674 23.0001 14.5 23.0001H12C11.8674 23.0001 11.7402 23.0528 11.6464 23.1466C11.5527 23.2403 11.5 23.3675 11.5 23.5001V24.5001C11.5 24.6327 11.5527 24.7599 11.6464 24.8537C11.7402 24.9474 11.8674 25.0001 12 25.0001H14.5C14.3674 25.0001 14.2402 24.9474 14.1464 24.8537C14.0527 24.7599 14 24.6327 14 24.5001Z" fill="#9C969E"/>
</svg>
